<?xml version="1.0" encoding="UTF-8"?>
<svg width="109px" height="32px" viewBox="0 0 109 32" version="1.1" xmlns="http://www.w3.org/2000/svg" xmlns:xlink="http://www.w3.org/1999/xlink">
    <!-- Generator: sketchtool 40.1 (33804) - http://www.bohemiancoding.com/sketch -->
    <title>82741F83-0A23-4AB3-95B2-A8A156B34AB4</title>
    <desc>Created with sketchtool.</desc>
    <defs></defs>
    <g id="New-Home" stroke="none" stroke-width="1" fill="none" fill-rule="evenodd">
        <g id="Launch/Hero-mobile" transform="translate(-133.000000, -24.000000)" fill="#424154">
            <g id="Hero">
                <g id="notion-logo">
                    <g transform="translate(133.000000, 24.000000)">
                        <g>
                            <path d="M65.2239253,0.0528326531 C63.2142014,0.0528326531 61.7279969,1.61724082 61.7279969,3.57315918 C61.7279969,5.52907755 63.2142014,7.05038367 65.2239253,7.05038367 C67.276975,7.05038367 68.7191973,5.52907755 68.7191973,3.57315918 C68.7191973,1.61724082 67.276975,0.0528326531 65.2239253,0.0528326531" id="Fill-5"></path>
                            <path d="M33.2370168,27.5566694 C30.222595,27.5566694 27.9502907,24.8964245 27.9502907,20.6988735 C27.9502907,16.438302 30.222595,14.0814041 33.2370168,14.0814041 C36.2964055,14.0814041 38.480089,16.2645878 38.480089,20.6988735 C38.480089,25.2432 36.2964055,27.5566694 33.2370168,27.5566694 M33.2370168,9.44107755 C26.8586131,9.44107755 21.921447,14.352751 21.921447,20.6988735 C21.921447,27.0449959 26.8586131,32.000098 33.2370168,32.000098 C39.6167334,32.000098 44.5538995,27.0449959 44.5538995,20.6988735 C44.5538995,14.352751 39.6167334,9.44107755 33.2370168,9.44107755" id="Fill-8"></path>
                            <polygon id="Fill-11" points="55.5225023 3.87755102 49.6075528 5.13828571 49.6075528 9.87591837 46.2599822 9.87591837 46.2599822 14.096 49.5806383 14.096 49.5806383 31.5219592 55.5225023 31.5219592 55.5225023 14.096 59.1930466 14.096 59.1930466 9.87591837 55.5225023 9.87591837"></polygon>
                            <polygon id="Fill-13" points="62.2528292 31.5219592 68.1946932 31.5219592 68.1946932 9.8762449 62.2528292 9.8762449"></polygon>
                            <path d="M82.8831069,27.5566694 C79.8686851,27.5566694 77.5963808,24.8964245 77.5963808,20.6988735 C77.5963808,16.438302 79.8686851,14.0814041 82.8831069,14.0814041 C85.9424957,14.0814041 88.1261791,16.2645878 88.1261791,20.6988735 C88.1261791,25.2432 85.9424957,27.5566694 82.8831069,27.5566694 M82.8831069,9.44107755 C76.5047032,9.44107755 71.5675371,14.352751 71.5675371,20.6988735 C71.5675371,27.0449959 76.5047032,32.000098 82.8831069,32.000098 C89.2628235,32.000098 94.1999896,27.0449959 94.1999896,20.6988735 C94.1999896,14.352751 89.2628235,9.44107755 82.8831069,9.44107755" id="Fill-15"></path>
                            <path d="M10.143342,9.99131429 C17.0429676,10.1689469 19.1780737,13.1322122 19.1780737,18.0941714 L19.1780737,31.4982531 L13.1987921,31.4982531 L13.1987921,19.2096 C13.1987921,14.7302531 11.8714486,14.1013551 9.81610135,14.1013551 C8.82190668,14.1013551 7.94882719,14.2414367 6.42815903,14.756049 L6.43308241,19.9044571 L6.43308241,31.4982531 L0.453800756,31.4982531 L0.453800756,18.254498 L0.453800756,11.0430694 C0.453800756,11.0430694 5.50190702,9.99131429 10.143342,9.99131429" id="Fill-16"></path>
                            <path d="M93.1094936,10.7209143 C95.657179,10.1295673 97.68594,9.94540408 99.7084648,9.94540408 C106.608419,10.1230367 108.743196,13.086302 108.743196,18.0482612 L108.743196,31.4523429 L102.763915,31.4523429 L102.763915,19.1636898 C102.763915,14.6843429 101.4369,14.0554449 99.3812241,14.0554449 C98.3873577,14.0554449 97.5142782,14.1955265 95.9932818,14.7101388" id="Fill-17"></path>
                        </g>
                    </g>
                </g>
            </g>
        </g>
    </g>
</svg>