<?xml version="1.0" encoding="utf-8"?>
<!-- Generator: Adobe Illustrator 19.0.0, SVG Export Plug-In . SVG Version: 6.00 Build 0)  -->
<svg version="1.1" id="Layer_1" xmlns="http://www.w3.org/2000/svg" xmlns:xlink="http://www.w3.org/1999/xlink" x="0px" y="0px"
	 viewBox="122 -6 315 85" style="enable-background:new 122 -6 315 85;" xml:space="preserve">
<style type="text/css">
	.st0{fill:#3FAE2A;}
	.st1{fill:#FFFFFF;}
</style>
<g id="XMLID_31_">
	<polygon id="XMLID_33_" class="st0" points="314.4,40.4 292.5,71.6 315.8,62.8 322.4,52.6 	"/>
	<polygon id="XMLID_32_" class="st0" points="331.5,39 331.5,38.9 327.3,33 332.5,37.4 346,16.8 351,17.4 351.3,-0.7 326.2,14.3 
		332.4,15.1 323.5,27.7 313.3,13.3 292.5,3.9 315.5,39 315.5,39 323.5,51.1 323.5,51.1 331.2,62.8 354.5,71.6 	"/>
</g>
<g id="XMLID_22_">
	<path id="XMLID_30_" class="st1" d="M204.7,36.4c-2-0.8-3.8-1.5-3.8-2.6c0-1.7,2.1-1.8,2.7-1.8c3,0,4.7,1.6,4.7,1.7l0.7,0.7
		l2.4-4.5l-0.4-0.4c-0.1-0.1-2.5-2.6-7.4-2.6c-5,0-8.5,2.8-8.5,6.8c0,4.5,4,6.1,7.1,7.4c2.1,0.8,3.8,1.5,3.8,2.7
		c0,1.2-1.4,1.9-2.8,1.9c-3.3,0-5.5-2.2-5.6-2.3l-0.7-0.7l-2.9,4.2l0.4,0.4c0.1,0.1,3.2,3.4,8.7,3.4c5,0,8.5-2.9,8.5-7
		C211.9,39.3,207.9,37.7,204.7,36.4z"/>
	<path id="XMLID_29_" class="st1" d="M226.7,32.6v-5.4h-6.2v-6.6l-6.2,1.1v10.6V38v4.7c0,1.3,0.1,2.5,0.3,3.6c0.2,1,0.6,1.9,1.2,2.6
		c0.6,0.7,1.4,1.3,2.4,1.6c1,0.3,2.3,0.5,3.8,0.5c0.7,0,1.4-0.1,2.3-0.2c0.9-0.1,1.7-0.3,2.3-0.6l0.2-0.1v-5.5l-0.4,0.3
		c-0.3,0.2-0.8,0.4-1.3,0.5c-0.6,0.1-1.1,0.2-1.6,0.2c-1.2,0-1.9-0.3-2.3-0.9c-0.4-0.6-0.6-1.5-0.6-2.6v-9.7H226.7z"/>
	<path id="XMLID_25_" class="st1" d="M252.2,33.8c-0.7-1.5-1.6-2.8-2.7-3.8c-1.1-1.1-2.5-1.9-4-2.5c-1.5-0.6-3.2-0.9-4.9-0.9
		c-1.7,0-3.4,0.3-4.9,0.9c-1.5,0.6-2.9,1.4-4,2.5c-1.1,1.1-2,2.4-2.7,3.8c-0.7,1.5-1,3.2-1,5c0,1.8,0.3,3.5,1,5
		c0.7,1.5,1.6,2.8,2.7,3.8c1.1,1.1,2.5,1.9,4,2.5c1.5,0.6,3.2,0.9,4.9,0.9c1.7,0,3.4-0.3,4.9-0.9c1.5-0.6,2.9-1.4,4-2.5
		c1.1-1.1,2-2.4,2.7-3.8c0.7-1.5,1-3.2,1-5C253.2,37,252.8,35.3,252.2,33.8z M247,38.8c0,0.8-0.1,1.7-0.4,2.5
		c-0.3,0.8-0.7,1.5-1.3,2.1c-0.6,0.6-1.2,1.1-2,1.5c-0.8,0.4-1.7,0.5-2.7,0.5c-1,0-1.9-0.2-2.7-0.5c-0.8-0.4-1.5-0.9-2-1.5
		c-0.6-0.6-1-1.3-1.3-2.1c-0.3-0.8-0.4-1.6-0.4-2.5c0-0.8,0.1-1.7,0.4-2.5c0.3-0.8,0.7-1.5,1.3-2.1c0.6-0.6,1.2-1.1,2-1.5
		c0.8-0.4,1.7-0.5,2.7-0.5c1,0,1.9,0.2,2.7,0.5c0.8,0.4,1.5,0.8,2,1.5c0.6,0.6,1,1.3,1.3,2.1C246.8,37.2,247,38,247,38.8z"/>
	<path id="XMLID_24_" class="st1" d="M271,43.4c-0.5,0.7-1.1,1.2-1.8,1.5c-0.7,0.3-1.5,0.5-2.3,0.5c-1,0-1.9-0.2-2.7-0.5
		c-0.8-0.4-1.5-0.8-2-1.5c-0.6-0.6-1-1.3-1.3-2.1c-0.3-0.8-0.4-1.6-0.4-2.5c0-0.8,0.1-1.7,0.4-2.5c0.3-0.8,0.7-1.5,1.3-2.1
		c0.6-0.6,1.2-1.1,2-1.5c0.8-0.4,1.7-0.5,2.7-0.5c0.7,0,1.4,0.2,2.1,0.6c0.7,0.4,1.4,0.9,2,1.6l0.2,0.2l4.3-4.3l-0.2-0.2
		c-1.1-1.2-2.5-2.1-4-2.7c-3.2-1.2-6.5-1-9.4,0c-1.5,0.6-2.9,1.4-4,2.5c-1.1,1.1-2,2.4-2.7,3.8c-0.7,1.5-1,3.2-1,5s0.3,3.5,1,5
		c0.7,1.5,1.6,2.8,2.7,3.8c1.1,1.1,2.5,1.9,4,2.5c1.5,0.6,3.2,0.9,4.9,0.9c0.5,0,1.1-0.1,1.8-0.2c0.7-0.1,1.4-0.3,2.2-0.6
		c0.8-0.3,1.5-0.6,2.3-1c0.8-0.4,1.4-0.9,2-1.5l0.2-0.2l-4.2-4.5L271,43.4z"/>
	<polygon id="XMLID_23_" class="st1" points="289.7,37.8 299.7,27.2 291.7,27.2 283.3,36.2 283.3,15.2 277.1,16.3 277.1,50.5 
		283.3,50.5 283.3,39.3 292,50.5 300.3,50.5 	"/>
</g>
</svg>
