<?xml version="1.0" encoding="UTF-8" standalone="no"?>
<!-- Created with Inkscape (http://www.inkscape.org/) -->
<svg xmlns:rdf="http://www.w3.org/1999/02/22-rdf-syntax-ns#" xmlns="http://www.w3.org/2000/svg" height="313.44" width="1313.3" version="1.1" xmlns:cc="http://creativecommons.org/ns#" xmlns:dc="http://purl.org/dc/elements/1.1/">
 <metadata>
  <rdf:RDF>
   <cc:Work rdf:about="">
    <dc:format>image/svg+xml</dc:format>
    <dc:type rdf:resource="http://purl.org/dc/dcmitype/StillImage"/>
    <dc:title/>
   </cc:Work>
  </rdf:RDF>
 </metadata>
 <path stroke-linejoin="round" d="m3.7579 51.307c15.016-3.409 25.145-15.863 41.062-13.898 12.979-5.795 20.37-15.045 32.18-22.923 3.57-8.422 30.18-15.696 27.81-7.184-9.5305 2.381-17.999 12.319-21.417 21.027-6.0668 2.6635-6.4772 22.979 0.53575 8.6188 6.1185-6.5295 9.4555-6.2703 2.6534 0.435 2.6661-2.6026 16.726-5.9522 13.36 1.0733 4.1942-4.8033 1.602-0.14925 7.1488-2.7019 5.0803 5.8145 10.36 11.001 14.268 18.471 6.1326 7.3826 15.444-4.2904 20.614 3.725 4.1974-5.5452 9.2915 5.6592 12.874-4.698 7.6068-6.205 15.739-11.471 26.507-10.478 10.034 4.171 25.874-11.319 30.686-4.0451-7.5829 15.274 8.6111 15.732 16.444 12.29 2.9794 7.8936 9.0049-4.6673 14.336-4.4662 7.5448 0.50919 1.2236 10.002 5.3482 15.669-10.894 3.8304 7.4591 3.511 3.3469 8.7698 11.528 5.9228 1.6486 5.3667-5.0656 5.9364-7.6004-2.3841-6.2746 5.7874-8.9435-1.363-6.2559 0.39477-12.067-3.5525-10.458 7.3011 3.1392 7.6139-10.916-2.6905-9.8088-4.9439 4.1188-0.32033-17.485-6.6481-23.055-3.3908-7.1831 11.578-15.547 5.2349-22.579 7.3753-8.7818-0.45928-7.7403 12.474-15.48 13.855-3.3504 8.4897-8.3845 6.098-3.0183-1.404 5.2749-2.7057 3.1034-11.559-3.1815-3.65-3.9673-6.0197-9.6039 18.143-11.362 2.2853 2.7805-15.195-4.8526 8.5894-9.0991 10.831-5.1412 9.3804-8.0728 24.981-17.184 29.595-7.2987-4.1954 7.2148-19.801-6.3406-13.198-1.0499-8.1619 4.115-26.029-12.369-24.167 4.227-18.206-19.066-8.51-29.805-12.292-12.691-8.732-28.877-10.896-42.976-16.211-10.723-0.171-3.227-15.064-16.212-14.091-0.60916-0.339-1.5214-1.444-0.8295-2.162z" stroke="#fff" stroke-width="7" fill="none"/>
 <path stroke-linejoin="round" d="m165.9 307.35c8.1574-14.709 13.737-31.257 12.279-48.614-1.3394-15.104-10.248-28.001-15.424-41.804 2.3364-8.7415 5.0094-17.788-0.35406-26.917 7.1786-7.4751 12.388-24.796 9.7024-31.794-3.3311-4.0278 11.979 1.6633 1.7799-3.9858-4.2916-4.7968 9.4068 4.3062 3.7097-3.1132 0.66569-9.2171-0.66794-9.755 4.933-6.364-2.3575-11.551 6.0987 2.6631 6.708-7.7264 3.3374-6.3471 7.8946-18.111 6.728-3.5666-2.7703 4.5739-1.4035 21.505 4.853 13.6 0.87726-11.351 10.857 6.7632 5.489-5.252-1.5935-4.3829-2.1867-16.14 1.032-4.773 2.2906 13.831 3.1669-9.0956-2.465-11.451-1.9423-13.428 7.5964-4.0264 9.148-1.354-5.7932-8.6041 10.447 1.2314 0.23799-5.887-13.77-4.6764 14.756-4.9551 4.376-8.828-10.655-2.9442-2.0462-21.399 6.2194-18.176 3.2763-5.124 14.309 8.4465 22.024 4.046 5.9676 9.7403 18.512 11.72 29.336 14.37 3.6007 2.0556 13.325 12.844 4.6865 17.749-0.8631 6.7052 14.652 15.628 6.6462 25.955-4.6725 4.9478 7.291 6.7272-0.25711 12.22-0.86596 4.6062-4.7144-3.0331-5.1716 6.3963 3.5585 13.989-17.374 12.013-14.083 26.36 1.3861 9.9838 13.511 14.687 17.975 4.139 4.4811-12.119 11.876-19.779 23.225-23.368 15.862 5.3824 13.932 26.289 19.267 39.517 0.7263 10.565 9.5424 15.881 5.17 27.603 1.6138 9.222-0.28639 14.882-8.593 10.025-8.1765 5.0897-1.0853 19.737-14.993 22.871 1.1498 11.492-4.7302 19.313-10.223 27.565-4.4415 1.1608-11.8 0.13666-17.36 0.48904-38.867 0.0227-77.735 0.0453-116.6 0.068z" stroke="#fff" stroke-width="7" fill="none"/>
 <g fill="#fff" transform="translate(3.5099 -12.647)">
  <path d="m364.27 323.35v-199.06h55.098c15.404 0.0002 29.349 3.646 41.836 10.938 12.487 7.2918 22.285 17.546 29.395 30.762 7.1092 13.125 10.755 27.845 10.938 44.16v25.84c-0.00016 16.589-3.5093 31.537-10.527 44.844-6.9272 13.307-16.634 23.698-29.121 31.172s-26.432 11.257-41.836 11.348h-55.781m7.3828-191.68v184.3h47.715c13.945 0.00001 26.614-3.3724 38.008-10.117 11.484-6.8359 20.462-16.315 26.934-28.438 6.4712-12.213 9.7524-25.749 9.8438-40.605v-25.566c-0.00016-14.857-3.1903-28.346-9.5703-40.469-6.2892-12.122-15.13-21.601-26.523-28.438-11.302-6.9269-23.835-10.482-37.598-10.664h-48.809"/>
  <path d="m596.83 326.09c-11.94 0-22.923-3.1901-32.949-9.5703-9.9349-6.4713-17.728-15.312-23.379-26.523-5.6511-11.211-8.4766-23.652-8.4766-37.324v-6.1523c-0.00001-13.672 2.7344-26.204 8.2031-37.598 5.4687-11.393 12.988-20.28 22.559-26.66 9.5703-6.3801 20.006-9.5702 31.309-9.5703 16.497 0.00015 29.987 5.879 40.469 17.637s15.723 27.207 15.723 46.348v7.793h-110.88v8.0664c-0.00002 12.031 2.5065 23.197 7.5195 33.496 5.1041 10.208 12.077 18.229 20.918 24.062 8.9322 5.8333 18.594 8.75 28.984 8.75 9.9348 0 18.366-1.6406 25.293-4.9219 7.0181-3.3724 13.216-8.5221 18.594-15.449l5.1953 3.6914c-11.029 15.951-27.389 23.926-49.082 23.926m-2.7344-146.02c-14.401 0.00015-26.615 5.3778-36.641 16.133-10.026 10.664-15.905 24.29-17.637 40.879h103.09v-1.7773c-0.00012-10.026-2.142-19.323-6.4258-27.891-4.1928-8.6587-10.026-15.358-17.5-20.098-7.3829-4.8306-15.677-7.246-24.883-7.2461"/>
  <path d="m726.58 311.6 53.184-136.17h7.9297l-57.559 147.93h-7.2461l-57.422-147.93h7.9297l53.184 136.17"/>
  <path d="m930.29 225.46h-101.99v97.891h-7.3828v-199.06h123.32v7.3828h-115.94v86.133h101.99v7.6562"/>
  <path d="m1027.8 326.09c-11.94 0-22.923-3.1901-32.949-9.5703-9.9349-6.4713-17.728-15.312-23.379-26.523-5.6511-11.211-8.4766-23.652-8.4766-37.324v-6.1523c-0.00001-13.672 2.7344-26.204 8.2031-37.598 5.4687-11.393 12.988-20.28 22.559-26.66 9.5703-6.3801 20.006-9.5702 31.309-9.5703 16.497 0.00015 29.987 5.879 40.469 17.637s15.722 27.207 15.723 46.348v7.793h-110.88v8.0664c-0.00002 12.031 2.5065 23.197 7.5195 33.496 5.1041 10.208 12.077 18.229 20.918 24.062 8.9323 5.8333 18.594 8.75 28.984 8.75 9.9348 0 18.366-1.6406 25.293-4.9219 7.0181-3.3724 13.216-8.5221 18.594-15.449l5.1953 3.6914c-11.029 15.951-27.389 23.926-49.082 23.926m-2.7344-146.02c-14.401 0.00015-26.615 5.3778-36.641 16.133-10.026 10.664-15.905 24.29-17.637 40.879h103.09v-1.7773c-0.0001-10.026-2.142-19.323-6.4258-27.891-4.1928-8.6587-10.026-15.358-17.5-20.098-7.3829-4.8306-15.677-7.246-24.883-7.2461"/>
  <path d="m1206.9 287.12c-0.0002-17.956-15.313-30.169-45.938-36.641-18.412-3.9192-31.218-8.9322-38.418-15.039-7.2006-6.1978-10.801-14.674-10.801-25.43 0-10.846 4.5573-19.779 13.672-26.797 9.2057-7.0181 21.146-10.527 35.82-10.527 15.95 0.00015 28.756 3.8283 38.418 11.484 9.6613 7.5652 14.492 17.819 14.492 30.762h-7.5195c-0.0001-9.9348-4.1928-18.229-12.578-24.883-8.3855-6.6535-19.323-9.9803-32.812-9.9805-12.943 0.00015-23.197 2.8257-30.762 8.4766-7.5652 5.6512-11.348 12.715-11.348 21.191 0 6.6538 1.4127 11.895 4.2383 15.723 2.8255 3.7371 7.4283 7.155 13.809 10.254 6.3801 3.0079 15.677 5.9246 27.891 8.75 12.214 2.8256 21.875 6.1524 28.984 9.9805 7.1093 3.8282 12.259 8.3855 15.449 13.672 3.19 5.1954 4.785 11.576 4.7852 19.141-0.0002 11.667-4.7853 21.055-14.356 28.164-9.5704 7.1094-22.103 10.664-37.598 10.664-16.589 0-29.987-3.737-40.195-11.211-10.117-7.5651-15.176-17.272-15.176-29.121h7.3829c0.7291 10.391 5.2864 18.503 13.672 24.336 8.4766 5.7422 19.915 8.6133 34.316 8.6133 13.216 0 23.926-3.0534 32.129-9.1602 8.2942-6.1979 12.441-13.672 12.442-22.422"/>
  <path d="m1271.7 135.5v39.922h33.633v7.5195h-33.633v105c0 10.482 1.6862 18.229 5.0586 23.242 3.4635 5.013 9.2057 7.5195 17.227 7.5195 4.0103 0 8.8866-0.41015 14.629-1.2305l1.2305 6.9726c-3.0079 1.0938-8.1576 1.6406-15.449 1.6406-10.755 0-18.457-2.9622-23.106-8.8867-4.6485-6.0156-7.0183-15.449-7.1094-28.301v-105.96h-27.344v-7.5195h27.344v-39.922h7.5195"/>
 </g>
 <g font-size="40px" fill="#000000">
  <text style="word-spacing:0px;letter-spacing:0px" xml:space="preserve" line-height="125%" y="-26.380939" x="130.96187" font-family="Sans"><tspan/></text>
  <text style="word-spacing:0px;letter-spacing:0px" font-weight="300" xml:space="preserve" line-height="125%" y="144.59425" x="351.03677" font-family="Roboto"><tspan y="144.59425" x="351.03677"/></text>
  <text style="word-spacing:0px;letter-spacing:0px" font-weight="300" xml:space="preserve" line-height="125%" y="266.44162" x="272.21045" font-family="Roboto"><tspan y="266.44162" x="272.21045"/></text>
 </g>
 <g fill="#fff" transform="translate(3.5099 -12.647)">
  <path d="m368.26 56.656 21.059 48.41 21.129-48.41h2.7773v51.187h-1.8984v-48.375l-21.234 48.375h-1.5117l-21.129-48.129v48.129h-1.8984v-51.187h2.707"/>
  <path d="m446.15 107.84h-1.8984v-51.187h1.8984v51.187"/>
  <path d="m512.06 92.164c-0.49223 5.2734-2.3086 9.3281-5.4492 12.164-3.1407 2.8125-7.4063 4.2188-12.797 4.2188-3.6328 0-6.8555-0.91407-9.668-2.7422-2.7891-1.8516-4.957-4.4648-6.5039-7.8398-1.5469-3.3984-2.332-7.2773-2.3555-11.637v-7.9102c-0.00001-4.3593 0.76171-8.25 2.2852-11.672 1.5234-3.4453 3.6914-6.1054 6.5039-7.9805 2.8359-1.8749 6.082-2.8124 9.7383-2.8125 5.3437 0.000052 9.5976 1.4063 12.762 4.2188 3.164 2.8125 4.9922 6.8438 5.4844 12.094h-1.8984c-0.5391-4.7109-2.1797-8.2851-4.9219-10.723-2.7422-2.4609-6.5508-3.6914-11.426-3.6914-4.9688 0.00005-8.9883 1.875-12.059 5.625-3.0469 3.75-4.5703 8.7774-4.5703 15.082v7.5234c-0.00001 4.0313 0.67968 7.6055 2.0391 10.723 1.3594 3.0938 3.3047 5.5078 5.8359 7.2422 2.5547 1.7344 5.4726 2.6016 8.7539 2.6016 4.8984 0 8.7187-1.207 11.461-3.6211 2.7656-2.4141 4.3945-6.0351 4.8867-10.863h1.8984"/>
  <path d="m575.99 107.84h-1.8984v-25.383h-32.695v25.383h-1.8984v-51.187h1.8984v23.906h32.695v-23.906h1.8984v51.187"/>
  <path d="m608.99 107.84h-1.8984v-51.187h1.8984v51.187"/>
  <path d="m676.16 102.36c-1.2891 1.7812-3.5508 3.2578-6.7852 4.4297s-6.7969 1.7578-10.688 1.7578c-3.7969 0-7.1836-0.92578-10.16-2.7774-2.9766-1.8516-5.3086-4.4648-6.9961-7.8398-1.6641-3.375-2.5195-7.1953-2.5664-11.461v-8.7891c-0.00001-4.1953 0.80859-7.957 2.4258-11.285 1.6172-3.3281 3.8906-5.8945 6.8203-7.6992 2.9297-1.8281 6.2226-2.7421 9.8789-2.7422 5.0859 0.000052 9.2226 1.3008 12.41 3.9023 3.2109 2.6016 5.0742 6.1524 5.5898 10.652h-1.8984c-0.63285-4.0781-2.3321-7.207-5.0977-9.3867-2.7656-2.1796-6.4336-3.2695-11.004-3.2695-5.1563 0.00005-9.3164 1.8399-12.48 5.5195-3.1641 3.6797-4.7461 8.5196-4.7461 14.52v8.1562c-0.00001 4.0078 0.73827 7.582 2.2148 10.723 1.5 3.1406 3.5976 5.5781 6.293 7.3125 2.7187 1.7109 5.8242 2.5664 9.3164 2.5664 3.4218 0 6.5976-0.5039 9.5274-1.5117 2.9296-1.0078 4.9453-2.2266 6.0469-3.6562v-14.906h-15.645v-1.9336h17.543v17.719"/>
  <path d="m732.11 92.551h-25.066l-5.6953 15.293h-2.0742l19.16-51.187h2.3203l19.16 51.187h-2.0742l-5.7305-15.293m-24.363-1.8984h23.66l-11.812-31.711-11.848 31.711"/>
  <path d="m800.62 107.84h-1.8984l-33.047-47.953v47.953h-1.9336v-51.187h1.9336l33.047 47.848v-47.848h1.8984v51.187"/>
 </g>
 <text style="word-spacing:0px;letter-spacing:0px" font-weight="300" xml:space="preserve" font-size="40px" line-height="125%" y="-198.64671" x="1019.5098" font-family="Roboto" fill="#000000"><tspan y="-198.64671" x="1019.5098"/></text>
</svg>
